<svg width="100" height="100" viewBox="0 0 100 100" fill="none" xmlns="http://www.w3.org/2000/svg">
<path d="M86.64 68.7266C84.472 64.9922 81.2494 54.4258 81.2494 40.625C81.2494 32.337 77.957 24.3884 72.0965 18.5279C66.236 12.6674 58.2874 9.375 49.9994 9.375C41.7114 9.375 33.7628 12.6674 27.9023 18.5279C22.0418 24.3884 18.7494 32.337 18.7494 40.625C18.7494 54.4297 15.5228 64.9922 13.3548 68.7266C12.8012 69.6759 12.5077 70.7545 12.5039 71.8535C12.5002 72.9526 12.7863 74.0331 13.3334 74.9863C13.8805 75.9395 14.6692 76.7315 15.6201 77.2826C16.571 77.8336 17.6504 78.1242 18.7494 78.125H34.6908C35.4118 81.653 37.3292 84.8236 40.1187 87.1007C42.9081 89.3778 46.3985 90.6215 49.9994 90.6215C53.6003 90.6215 57.0906 89.3778 59.8801 87.1007C62.6696 84.8236 64.587 81.653 65.308 78.125H81.2494C82.3481 78.1235 83.427 77.8324 84.3773 77.2811C85.3276 76.7298 86.1158 75.9377 86.6625 74.9846C87.2091 74.0316 87.4949 72.9513 87.4909 71.8526C87.487 70.7539 87.1935 69.6757 86.64 68.7266ZM49.9994 84.375C48.0612 84.3744 46.1708 83.7731 44.5884 82.6538C43.0061 81.5346 41.8095 79.9524 41.1634 78.125H58.8353C58.1893 79.9524 56.9927 81.5346 55.4103 82.6538C53.828 83.7731 51.9376 84.3744 49.9994 84.375ZM18.7494 71.875C21.7572 66.7031 24.9994 54.7188 24.9994 40.625C24.9994 33.9946 27.6333 27.6357 32.3217 22.9473C37.0101 18.2589 43.369 15.625 49.9994 15.625C56.6298 15.625 62.9886 18.2589 67.6771 22.9473C72.3655 27.6357 74.9994 33.9946 74.9994 40.625C74.9994 54.707 78.2338 66.6914 81.2494 71.875H18.7494Z" fill="black"/>
</svg>
